<mxfile host="app.diagrams.net" agent="Mozilla/5.0 (X11; Linux x86_64) AppleWebKit/537.36 (KHTML, like Gecko) Chrome/128.0.0.0 Safari/537.36 Edg/128.0.0.0" version="26.0.6">
  <diagram id="ofadndQi05QFOFvp9QXc" name="第 1 页">
    <mxGraphModel dx="1356" dy="802" grid="1" gridSize="10" guides="1" tooltips="1" connect="1" arrows="1" fold="1" page="1" pageScale="1" pageWidth="1169" pageHeight="827" math="0" shadow="0">
      <root>
        <mxCell id="0" />
        <mxCell id="1" parent="0" />
        <mxCell id="4Nw8_4SzqRGBnGvHpyXe-1" value="" style="rounded=1;whiteSpace=wrap;html=1;fillColor=#e1d5e7;strokeColor=#9673a6;arcSize=4;" vertex="1" parent="1">
          <mxGeometry x="160" y="120" width="570" height="440" as="geometry" />
        </mxCell>
        <mxCell id="4Nw8_4SzqRGBnGvHpyXe-2" value="&lt;font style=&quot;font-size: 16px;&quot;&gt;Feature Fusion&lt;/font&gt;" style="text;html=1;align=center;verticalAlign=middle;resizable=0;points=[];autosize=1;strokeColor=none;fillColor=none;" vertex="1" parent="1">
          <mxGeometry x="180" y="120" width="130" height="30" as="geometry" />
        </mxCell>
        <mxCell id="4Nw8_4SzqRGBnGvHpyXe-3" value="" style="group" vertex="1" connectable="0" parent="1">
          <mxGeometry x="190" y="150" width="120" height="47.5" as="geometry" />
        </mxCell>
        <mxCell id="4Nw8_4SzqRGBnGvHpyXe-4" value="" style="shape=cube;whiteSpace=wrap;html=1;boundedLbl=1;backgroundOutline=1;darkOpacity=0.05;darkOpacity2=0.1;flipH=1;size=18;shadow=0;fillColor=#f8cecc;strokeColor=#b85450;direction=east;" vertex="1" parent="4Nw8_4SzqRGBnGvHpyXe-3">
          <mxGeometry width="70" height="47.5" as="geometry" />
        </mxCell>
        <mxCell id="4Nw8_4SzqRGBnGvHpyXe-5" value="" style="shape=cube;whiteSpace=wrap;html=1;boundedLbl=1;backgroundOutline=1;darkOpacity=0.05;darkOpacity2=0.1;flipH=1;size=18;shadow=0;fillColor=#f8cecc;strokeColor=#b85450;direction=east;" vertex="1" parent="4Nw8_4SzqRGBnGvHpyXe-3">
          <mxGeometry x="50" width="70" height="47.5" as="geometry" />
        </mxCell>
        <mxCell id="4Nw8_4SzqRGBnGvHpyXe-6" value="" style="group;strokeWidth=3;" vertex="1" connectable="0" parent="4Nw8_4SzqRGBnGvHpyXe-3">
          <mxGeometry x="45" y="30" width="10" height="10" as="geometry" />
        </mxCell>
        <mxCell id="4Nw8_4SzqRGBnGvHpyXe-7" value="" style="ellipse;whiteSpace=wrap;html=1;aspect=fixed;fillColor=none;" vertex="1" parent="4Nw8_4SzqRGBnGvHpyXe-6">
          <mxGeometry y="-2" width="10" height="10" as="geometry" />
        </mxCell>
        <mxCell id="4Nw8_4SzqRGBnGvHpyXe-8" value="" style="endArrow=none;html=1;rounded=0;exitX=0;exitY=1;exitDx=0;exitDy=0;entryX=1;entryY=0;entryDx=0;entryDy=0;" edge="1" parent="4Nw8_4SzqRGBnGvHpyXe-6" source="4Nw8_4SzqRGBnGvHpyXe-7" target="4Nw8_4SzqRGBnGvHpyXe-7">
          <mxGeometry width="50" height="50" relative="1" as="geometry">
            <mxPoint x="1.875" y="8.125" as="sourcePoint" />
            <mxPoint x="8.125" y="1.875" as="targetPoint" />
          </mxGeometry>
        </mxCell>
        <mxCell id="4Nw8_4SzqRGBnGvHpyXe-9" value="" style="endArrow=none;html=1;rounded=0;exitX=1;exitY=1;exitDx=0;exitDy=0;entryX=0;entryY=0;entryDx=0;entryDy=0;" edge="1" parent="4Nw8_4SzqRGBnGvHpyXe-6" source="4Nw8_4SzqRGBnGvHpyXe-7" target="4Nw8_4SzqRGBnGvHpyXe-7">
          <mxGeometry width="50" height="50" relative="1" as="geometry">
            <mxPoint x="8.125" y="8.125" as="sourcePoint" />
            <mxPoint x="1.875" y="1.875" as="targetPoint" />
          </mxGeometry>
        </mxCell>
        <mxCell id="4Nw8_4SzqRGBnGvHpyXe-10" value="" style="group" vertex="1" connectable="0" parent="1">
          <mxGeometry x="195" y="210" width="100" height="67.5" as="geometry" />
        </mxCell>
        <mxCell id="4Nw8_4SzqRGBnGvHpyXe-11" value="" style="shape=cube;whiteSpace=wrap;html=1;boundedLbl=1;backgroundOutline=1;darkOpacity=0.05;darkOpacity2=0.1;flipH=1;size=20;shadow=0;fillColor=#ffe6cc;strokeColor=#d79b00;" vertex="1" parent="4Nw8_4SzqRGBnGvHpyXe-10">
          <mxGeometry width="60" height="67.5" as="geometry" />
        </mxCell>
        <mxCell id="4Nw8_4SzqRGBnGvHpyXe-12" value="" style="shape=cube;whiteSpace=wrap;html=1;boundedLbl=1;backgroundOutline=1;darkOpacity=0.05;darkOpacity2=0.1;flipH=1;size=20;shadow=0;fillColor=#ffe6cc;strokeColor=#d79b00;" vertex="1" parent="4Nw8_4SzqRGBnGvHpyXe-10">
          <mxGeometry x="40" width="60" height="67.5" as="geometry" />
        </mxCell>
        <mxCell id="4Nw8_4SzqRGBnGvHpyXe-13" value="" style="group;strokeWidth=3;" vertex="1" connectable="0" parent="4Nw8_4SzqRGBnGvHpyXe-10">
          <mxGeometry x="35" y="41" width="10" height="10" as="geometry" />
        </mxCell>
        <mxCell id="4Nw8_4SzqRGBnGvHpyXe-14" value="" style="ellipse;whiteSpace=wrap;html=1;aspect=fixed;fillColor=none;" vertex="1" parent="4Nw8_4SzqRGBnGvHpyXe-13">
          <mxGeometry y="-2" width="10" height="10" as="geometry" />
        </mxCell>
        <mxCell id="4Nw8_4SzqRGBnGvHpyXe-15" value="" style="endArrow=none;html=1;rounded=0;exitX=0;exitY=1;exitDx=0;exitDy=0;entryX=1;entryY=0;entryDx=0;entryDy=0;" edge="1" parent="4Nw8_4SzqRGBnGvHpyXe-13" source="4Nw8_4SzqRGBnGvHpyXe-14" target="4Nw8_4SzqRGBnGvHpyXe-14">
          <mxGeometry width="50" height="50" relative="1" as="geometry">
            <mxPoint x="1.875" y="8.125" as="sourcePoint" />
            <mxPoint x="8.125" y="1.875" as="targetPoint" />
          </mxGeometry>
        </mxCell>
        <mxCell id="4Nw8_4SzqRGBnGvHpyXe-16" value="" style="endArrow=none;html=1;rounded=0;exitX=1;exitY=1;exitDx=0;exitDy=0;entryX=0;entryY=0;entryDx=0;entryDy=0;" edge="1" parent="4Nw8_4SzqRGBnGvHpyXe-13" source="4Nw8_4SzqRGBnGvHpyXe-14" target="4Nw8_4SzqRGBnGvHpyXe-14">
          <mxGeometry width="50" height="50" relative="1" as="geometry">
            <mxPoint x="8.125" y="8.125" as="sourcePoint" />
            <mxPoint x="1.875" y="1.875" as="targetPoint" />
          </mxGeometry>
        </mxCell>
        <mxCell id="4Nw8_4SzqRGBnGvHpyXe-17" value="" style="group" vertex="1" connectable="0" parent="1">
          <mxGeometry x="205" y="290" width="70" height="110" as="geometry" />
        </mxCell>
        <mxCell id="4Nw8_4SzqRGBnGvHpyXe-18" value="" style="shape=cube;whiteSpace=wrap;html=1;boundedLbl=1;backgroundOutline=1;darkOpacity=0.05;darkOpacity2=0.1;flipH=1;size=30;shadow=0;fillColor=#d5e8d4;strokeColor=#82b366;" vertex="1" parent="4Nw8_4SzqRGBnGvHpyXe-17">
          <mxGeometry width="50" height="110" as="geometry" />
        </mxCell>
        <mxCell id="4Nw8_4SzqRGBnGvHpyXe-19" value="" style="shape=cube;whiteSpace=wrap;html=1;boundedLbl=1;backgroundOutline=1;darkOpacity=0.05;darkOpacity2=0.1;flipH=1;size=30;shadow=0;fillColor=#d5e8d4;strokeColor=#82b366;" vertex="1" parent="4Nw8_4SzqRGBnGvHpyXe-17">
          <mxGeometry x="20" width="50" height="110" as="geometry" />
        </mxCell>
        <mxCell id="4Nw8_4SzqRGBnGvHpyXe-20" value="" style="group;strokeWidth=3;" vertex="1" connectable="0" parent="1">
          <mxGeometry x="220" y="356" width="10" height="10" as="geometry" />
        </mxCell>
        <mxCell id="4Nw8_4SzqRGBnGvHpyXe-21" value="" style="ellipse;whiteSpace=wrap;html=1;aspect=fixed;fillColor=none;" vertex="1" parent="4Nw8_4SzqRGBnGvHpyXe-20">
          <mxGeometry y="-2" width="10" height="10" as="geometry" />
        </mxCell>
        <mxCell id="4Nw8_4SzqRGBnGvHpyXe-22" value="" style="endArrow=none;html=1;rounded=0;exitX=0;exitY=1;exitDx=0;exitDy=0;entryX=1;entryY=0;entryDx=0;entryDy=0;" edge="1" parent="4Nw8_4SzqRGBnGvHpyXe-20" source="4Nw8_4SzqRGBnGvHpyXe-21" target="4Nw8_4SzqRGBnGvHpyXe-21">
          <mxGeometry width="50" height="50" relative="1" as="geometry">
            <mxPoint x="1.875" y="8.125" as="sourcePoint" />
            <mxPoint x="8.125" y="1.875" as="targetPoint" />
          </mxGeometry>
        </mxCell>
        <mxCell id="4Nw8_4SzqRGBnGvHpyXe-23" value="" style="endArrow=none;html=1;rounded=0;exitX=1;exitY=1;exitDx=0;exitDy=0;entryX=0;entryY=0;entryDx=0;entryDy=0;" edge="1" parent="4Nw8_4SzqRGBnGvHpyXe-20" source="4Nw8_4SzqRGBnGvHpyXe-21" target="4Nw8_4SzqRGBnGvHpyXe-21">
          <mxGeometry width="50" height="50" relative="1" as="geometry">
            <mxPoint x="8.125" y="8.125" as="sourcePoint" />
            <mxPoint x="1.875" y="1.875" as="targetPoint" />
          </mxGeometry>
        </mxCell>
        <mxCell id="4Nw8_4SzqRGBnGvHpyXe-24" value="" style="group" vertex="1" connectable="0" parent="1">
          <mxGeometry x="210" y="410" width="50" height="146.25" as="geometry" />
        </mxCell>
        <mxCell id="4Nw8_4SzqRGBnGvHpyXe-25" value="" style="shape=cube;whiteSpace=wrap;html=1;boundedLbl=1;backgroundOutline=1;darkOpacity=0.05;darkOpacity2=0.1;flipH=1;size=30;shadow=0;fillColor=#dae8fc;strokeColor=#6c8ebf;" vertex="1" parent="4Nw8_4SzqRGBnGvHpyXe-24">
          <mxGeometry width="40" height="146.25" as="geometry" />
        </mxCell>
        <mxCell id="4Nw8_4SzqRGBnGvHpyXe-26" value="" style="shape=cube;whiteSpace=wrap;html=1;boundedLbl=1;backgroundOutline=1;darkOpacity=0.05;darkOpacity2=0.1;flipH=1;size=30;shadow=0;fillColor=#dae8fc;strokeColor=#6c8ebf;" vertex="1" parent="4Nw8_4SzqRGBnGvHpyXe-24">
          <mxGeometry x="10" width="40" height="146.25" as="geometry" />
        </mxCell>
        <mxCell id="4Nw8_4SzqRGBnGvHpyXe-27" value="" style="group;strokeWidth=3;" vertex="1" connectable="0" parent="1">
          <mxGeometry x="215" y="490" width="10" height="10" as="geometry" />
        </mxCell>
        <mxCell id="4Nw8_4SzqRGBnGvHpyXe-28" value="" style="ellipse;whiteSpace=wrap;html=1;aspect=fixed;fillColor=none;" vertex="1" parent="4Nw8_4SzqRGBnGvHpyXe-27">
          <mxGeometry y="-2" width="10" height="10" as="geometry" />
        </mxCell>
        <mxCell id="4Nw8_4SzqRGBnGvHpyXe-29" value="" style="endArrow=none;html=1;rounded=0;exitX=0;exitY=1;exitDx=0;exitDy=0;entryX=1;entryY=0;entryDx=0;entryDy=0;" edge="1" parent="4Nw8_4SzqRGBnGvHpyXe-27" source="4Nw8_4SzqRGBnGvHpyXe-28" target="4Nw8_4SzqRGBnGvHpyXe-28">
          <mxGeometry width="50" height="50" relative="1" as="geometry">
            <mxPoint x="1.875" y="8.125" as="sourcePoint" />
            <mxPoint x="8.125" y="1.875" as="targetPoint" />
          </mxGeometry>
        </mxCell>
        <mxCell id="4Nw8_4SzqRGBnGvHpyXe-30" value="" style="endArrow=none;html=1;rounded=0;exitX=1;exitY=1;exitDx=0;exitDy=0;entryX=0;entryY=0;entryDx=0;entryDy=0;" edge="1" parent="4Nw8_4SzqRGBnGvHpyXe-27" source="4Nw8_4SzqRGBnGvHpyXe-28" target="4Nw8_4SzqRGBnGvHpyXe-28">
          <mxGeometry width="50" height="50" relative="1" as="geometry">
            <mxPoint x="8.125" y="8.125" as="sourcePoint" />
            <mxPoint x="1.875" y="1.875" as="targetPoint" />
          </mxGeometry>
        </mxCell>
        <mxCell id="4Nw8_4SzqRGBnGvHpyXe-31" style="edgeStyle=orthogonalEdgeStyle;rounded=0;orthogonalLoop=1;jettySize=auto;html=1;exitX=0;exitY=0;exitDx=0;exitDy=14.75;exitPerimeter=0;entryX=-0.011;entryY=0.132;entryDx=0;entryDy=0;entryPerimeter=0;fillColor=#f8cecc;strokeColor=#b85450;" edge="1" parent="1" source="4Nw8_4SzqRGBnGvHpyXe-5" target="4Nw8_4SzqRGBnGvHpyXe-49">
          <mxGeometry relative="1" as="geometry" />
        </mxCell>
        <mxCell id="4Nw8_4SzqRGBnGvHpyXe-32" style="edgeStyle=orthogonalEdgeStyle;rounded=0;orthogonalLoop=1;jettySize=auto;html=1;exitX=0;exitY=0;exitDx=0;exitDy=23.75;exitPerimeter=0;entryX=-0.01;entryY=0.377;entryDx=0;entryDy=0;entryPerimeter=0;fillColor=#ffe6cc;strokeColor=#d79b00;" edge="1" parent="1" source="4Nw8_4SzqRGBnGvHpyXe-12" target="4Nw8_4SzqRGBnGvHpyXe-49">
          <mxGeometry relative="1" as="geometry" />
        </mxCell>
        <mxCell id="4Nw8_4SzqRGBnGvHpyXe-33" style="edgeStyle=orthogonalEdgeStyle;rounded=0;orthogonalLoop=1;jettySize=auto;html=1;exitX=0;exitY=0;exitDx=0;exitDy=40;exitPerimeter=0;entryX=-0.01;entryY=0.623;entryDx=0;entryDy=0;entryPerimeter=0;fillColor=#d5e8d4;strokeColor=#82b366;" edge="1" parent="1" source="4Nw8_4SzqRGBnGvHpyXe-19" target="4Nw8_4SzqRGBnGvHpyXe-49">
          <mxGeometry relative="1" as="geometry" />
        </mxCell>
        <mxCell id="4Nw8_4SzqRGBnGvHpyXe-34" style="edgeStyle=orthogonalEdgeStyle;rounded=0;orthogonalLoop=1;jettySize=auto;html=1;exitX=0;exitY=0;exitDx=0;exitDy=58.125;exitPerimeter=0;entryX=0;entryY=0.857;entryDx=0;entryDy=0;entryPerimeter=0;fillColor=#dae8fc;strokeColor=#6c8ebf;" edge="1" parent="1" source="4Nw8_4SzqRGBnGvHpyXe-26" target="4Nw8_4SzqRGBnGvHpyXe-49">
          <mxGeometry relative="1" as="geometry">
            <Array as="points">
              <mxPoint x="317" y="468" />
              <mxPoint x="317" y="401" />
            </Array>
          </mxGeometry>
        </mxCell>
        <mxCell id="4Nw8_4SzqRGBnGvHpyXe-35" value="" style="group" vertex="1" connectable="0" parent="1">
          <mxGeometry x="580" y="255" width="70" height="146.25" as="geometry" />
        </mxCell>
        <mxCell id="4Nw8_4SzqRGBnGvHpyXe-36" value="" style="shape=cube;whiteSpace=wrap;html=1;boundedLbl=1;backgroundOutline=1;darkOpacity=0.05;darkOpacity2=0.1;flipH=1;size=30;shadow=0;fillColor=#dae8fc;strokeColor=#6c8ebf;" vertex="1" parent="4Nw8_4SzqRGBnGvHpyXe-35">
          <mxGeometry width="40" height="146.25" as="geometry" />
        </mxCell>
        <mxCell id="4Nw8_4SzqRGBnGvHpyXe-37" value="" style="shape=cube;whiteSpace=wrap;html=1;boundedLbl=1;backgroundOutline=1;darkOpacity=0.05;darkOpacity2=0.1;flipH=1;size=30;shadow=0;fillColor=#ffe6cc;strokeColor=#d79b00;" vertex="1" parent="4Nw8_4SzqRGBnGvHpyXe-35">
          <mxGeometry x="10" width="40" height="146.25" as="geometry" />
        </mxCell>
        <mxCell id="4Nw8_4SzqRGBnGvHpyXe-38" value="" style="shape=cube;whiteSpace=wrap;html=1;boundedLbl=1;backgroundOutline=1;darkOpacity=0.05;darkOpacity2=0.1;flipH=1;size=30;shadow=0;fillColor=#d5e8d4;strokeColor=#82b366;" vertex="1" parent="4Nw8_4SzqRGBnGvHpyXe-35">
          <mxGeometry x="20" width="40" height="146.25" as="geometry" />
        </mxCell>
        <mxCell id="4Nw8_4SzqRGBnGvHpyXe-39" value="" style="shape=cube;whiteSpace=wrap;html=1;boundedLbl=1;backgroundOutline=1;darkOpacity=0.05;darkOpacity2=0.1;flipH=1;size=30;shadow=0;fillColor=#f8cecc;strokeColor=#b85450;" vertex="1" parent="4Nw8_4SzqRGBnGvHpyXe-35">
          <mxGeometry x="30" width="40" height="146.25" as="geometry" />
        </mxCell>
        <mxCell id="4Nw8_4SzqRGBnGvHpyXe-40" value="" style="group;strokeWidth=3;" vertex="1" connectable="0" parent="1">
          <mxGeometry x="520" y="337" width="20" height="20" as="geometry" />
        </mxCell>
        <mxCell id="4Nw8_4SzqRGBnGvHpyXe-41" value="" style="ellipse;whiteSpace=wrap;html=1;aspect=fixed;fillColor=none;" vertex="1" parent="4Nw8_4SzqRGBnGvHpyXe-40">
          <mxGeometry y="-4" width="20" height="20" as="geometry" />
        </mxCell>
        <mxCell id="4Nw8_4SzqRGBnGvHpyXe-42" value="" style="endArrow=none;html=1;rounded=0;exitX=0;exitY=1;exitDx=0;exitDy=0;entryX=1;entryY=0;entryDx=0;entryDy=0;" edge="1" parent="4Nw8_4SzqRGBnGvHpyXe-40" source="4Nw8_4SzqRGBnGvHpyXe-41" target="4Nw8_4SzqRGBnGvHpyXe-41">
          <mxGeometry width="50" height="50" relative="1" as="geometry">
            <mxPoint x="3.75" y="16.25" as="sourcePoint" />
            <mxPoint x="16.25" y="3.75" as="targetPoint" />
          </mxGeometry>
        </mxCell>
        <mxCell id="4Nw8_4SzqRGBnGvHpyXe-43" value="" style="endArrow=none;html=1;rounded=0;exitX=1;exitY=1;exitDx=0;exitDy=0;entryX=0;entryY=0;entryDx=0;entryDy=0;" edge="1" parent="4Nw8_4SzqRGBnGvHpyXe-40" source="4Nw8_4SzqRGBnGvHpyXe-41" target="4Nw8_4SzqRGBnGvHpyXe-41">
          <mxGeometry width="50" height="50" relative="1" as="geometry">
            <mxPoint x="16.25" y="16.25" as="sourcePoint" />
            <mxPoint x="3.75" y="3.75" as="targetPoint" />
          </mxGeometry>
        </mxCell>
        <mxCell id="4Nw8_4SzqRGBnGvHpyXe-44" value="" style="endArrow=classic;html=1;rounded=0;exitX=0.15;exitY=0.13;exitDx=0;exitDy=0;exitPerimeter=0;fillColor=#f8cecc;strokeColor=#b85450;" edge="1" parent="1">
          <mxGeometry width="50" height="50" relative="1" as="geometry">
            <mxPoint x="414" y="295.01250000000005" as="sourcePoint" />
            <mxPoint x="450" y="295" as="targetPoint" />
          </mxGeometry>
        </mxCell>
        <mxCell id="4Nw8_4SzqRGBnGvHpyXe-45" value="" style="endArrow=classic;html=1;rounded=0;exitX=0.15;exitY=0.13;exitDx=0;exitDy=0;exitPerimeter=0;fillColor=#ffe6cc;strokeColor=#d79b00;" edge="1" parent="1">
          <mxGeometry width="50" height="50" relative="1" as="geometry">
            <mxPoint x="414" y="330.90250000000003" as="sourcePoint" />
            <mxPoint x="450" y="330.89" as="targetPoint" />
          </mxGeometry>
        </mxCell>
        <mxCell id="4Nw8_4SzqRGBnGvHpyXe-46" value="" style="endArrow=classic;html=1;rounded=0;exitX=0.15;exitY=0.13;exitDx=0;exitDy=0;exitPerimeter=0;fillColor=#d5e8d4;strokeColor=#82b366;" edge="1" parent="1">
          <mxGeometry width="50" height="50" relative="1" as="geometry">
            <mxPoint x="414" y="367.01250000000005" as="sourcePoint" />
            <mxPoint x="450" y="367" as="targetPoint" />
          </mxGeometry>
        </mxCell>
        <mxCell id="4Nw8_4SzqRGBnGvHpyXe-47" value="" style="endArrow=classic;html=1;rounded=0;exitX=0.15;exitY=0.13;exitDx=0;exitDy=0;exitPerimeter=0;fillColor=#ffe6cc;strokeColor=#d79b00;entryX=0;entryY=0;entryDx=0;entryDy=0;" edge="1" parent="1" target="4Nw8_4SzqRGBnGvHpyXe-41">
          <mxGeometry width="50" height="50" relative="1" as="geometry">
            <mxPoint x="480" y="330.81250000000006" as="sourcePoint" />
            <mxPoint x="516" y="330.8" as="targetPoint" />
            <Array as="points">
              <mxPoint x="510" y="331" />
            </Array>
          </mxGeometry>
        </mxCell>
        <mxCell id="4Nw8_4SzqRGBnGvHpyXe-48" value="" style="endArrow=classic;html=1;rounded=0;exitX=0.15;exitY=0.13;exitDx=0;exitDy=0;exitPerimeter=0;fillColor=#dae8fc;strokeColor=#6c8ebf;entryX=0.5;entryY=1;entryDx=0;entryDy=0;" edge="1" parent="1" target="4Nw8_4SzqRGBnGvHpyXe-41">
          <mxGeometry width="50" height="50" relative="1" as="geometry">
            <mxPoint x="414" y="401.01250000000005" as="sourcePoint" />
            <mxPoint x="450" y="401" as="targetPoint" />
            <Array as="points">
              <mxPoint x="530" y="401" />
            </Array>
          </mxGeometry>
        </mxCell>
        <mxCell id="4Nw8_4SzqRGBnGvHpyXe-49" value="&lt;b&gt;MLP&lt;/b&gt;" style="rounded=1;whiteSpace=wrap;html=1;fillColor=#647687;fontColor=#ffffff;strokeColor=#314354;" vertex="1" parent="1">
          <mxGeometry x="374" y="276" width="40" height="146.25" as="geometry" />
        </mxCell>
        <mxCell id="4Nw8_4SzqRGBnGvHpyXe-50" value="" style="endArrow=classic;html=1;rounded=0;exitX=0.15;exitY=0.13;exitDx=0;exitDy=0;exitPerimeter=0;fillColor=#d5e8d4;strokeColor=#82b366;entryX=0;entryY=1;entryDx=0;entryDy=0;" edge="1" parent="1" target="4Nw8_4SzqRGBnGvHpyXe-41">
          <mxGeometry width="50" height="50" relative="1" as="geometry">
            <mxPoint x="480" y="367.01250000000005" as="sourcePoint" />
            <mxPoint x="516" y="367" as="targetPoint" />
            <Array as="points">
              <mxPoint x="510" y="367" />
            </Array>
          </mxGeometry>
        </mxCell>
        <mxCell id="4Nw8_4SzqRGBnGvHpyXe-51" value="" style="endArrow=classic;html=1;rounded=0;exitX=0.15;exitY=0.13;exitDx=0;exitDy=0;exitPerimeter=0;fillColor=#f8cecc;strokeColor=#b85450;entryX=0.5;entryY=0;entryDx=0;entryDy=0;" edge="1" parent="1" target="4Nw8_4SzqRGBnGvHpyXe-41">
          <mxGeometry width="50" height="50" relative="1" as="geometry">
            <mxPoint x="480" y="295.01250000000005" as="sourcePoint" />
            <mxPoint x="530" y="333" as="targetPoint" />
            <Array as="points">
              <mxPoint x="530" y="295" />
            </Array>
          </mxGeometry>
        </mxCell>
        <mxCell id="4Nw8_4SzqRGBnGvHpyXe-52" value="Upsample" style="rounded=1;whiteSpace=wrap;html=1;fillColor=#f5f5f5;fontColor=#333333;strokeColor=#666666;textDirection=vertical-lr;" vertex="1" parent="1">
          <mxGeometry x="450" y="276" width="30" height="110" as="geometry" />
        </mxCell>
        <mxCell id="4Nw8_4SzqRGBnGvHpyXe-53" style="edgeStyle=orthogonalEdgeStyle;rounded=0;orthogonalLoop=1;jettySize=auto;html=1;exitX=1;exitY=0.5;exitDx=0;exitDy=0;entryX=0;entryY=0;entryDx=40;entryDy=88.125;entryPerimeter=0;" edge="1" parent="1" source="4Nw8_4SzqRGBnGvHpyXe-41" target="4Nw8_4SzqRGBnGvHpyXe-36">
          <mxGeometry relative="1" as="geometry" />
        </mxCell>
        <mxCell id="4Nw8_4SzqRGBnGvHpyXe-54" value="" style="endArrow=classic;html=1;rounded=0;strokeWidth=5;fillColor=#f5f5f5;strokeColor=#666666;dashed=1;dashPattern=1 1;" edge="1" parent="1">
          <mxGeometry width="50" height="50" relative="1" as="geometry">
            <mxPoint x="660" y="339.66" as="sourcePoint" />
            <mxPoint x="720" y="339.66" as="targetPoint" />
          </mxGeometry>
        </mxCell>
      </root>
    </mxGraphModel>
  </diagram>
</mxfile>
